# xmcd
#
# Track frame offsets: 
#        150
#        11670
#        22145
#        35712
#        44985
#        56870
#        66125
#        76670
#        87555
#        95045
#        105150
#        117260
#        130927
#        141490
#        151175
#        164185
#        173440
#        181495
#        191760
#        204515
#        212977
#        222255
#
# Disc length: 3404 seconds
#
# Revision: 0
# Processed by: cddbd v1.5.2PL0 Copyright (c) Steve Scherf et al.
# Submitted via: ExactAudioCopy v0.95b4
#
DISCID=4e0d4a16
DTITLE=Bobby Fuller Four  - Never To Be Forgotten The Mustang Years (D
DTITLE=isc 1) FLAC
DYEAR=1900
DGENRE=
TTITLE0=Let Her Dance
TTITLE1=Julie
TTITLE2=A New Shade Of Blue
TTITLE3=Only When I Dream
TTITLE4=You Kiss Me
TTITLE5=Little Annie Lou
TTITLE6=I Fought The Law
TTITLE7=Another Sad And Lonely Night
TTITLE8=Saturday Night
TTITLE9=Take My Word
TTITLE10=Fool Of Love
TTITLE11=Never To Be Forgotten
TTITLE12=My True Love (Unreleased Alternate Take)
TTITLE13=You're In Love (Unreleased)
TTITLE14=Our Favorite Martian
TTITLE15=Those Memories Of You
TTITLE16=Think It Over (Unreleased)
TTITLE17=Pamela (Unreleased)
TTITLE18=Wolfman
TTITLE19=Thunder Reef
TTITLE20=It's Love, Come What May
TTITLE21=Gallenkamp Shoe Commercial
EXTD=
EXTT0=
EXTT1=
EXTT2=
EXTT3=
EXTT4=
EXTT5=
EXTT6=
EXTT7=
EXTT8=
EXTT9=
EXTT10=
EXTT11=
EXTT12=
EXTT13=
EXTT14=
EXTT15=
EXTT16=
EXTT17=
EXTT18=
EXTT19=
EXTT20=
EXTT21=
PLAYORDER=
